<?xml version="1.0" encoding="UTF-8" standalone="no"?>
<svg
   xmlns:dc="http://purl.org/dc/elements/1.1/"
   xmlns:cc="http://creativecommons.org/ns#"
   xmlns:rdf="http://www.w3.org/1999/02/22-rdf-syntax-ns#"
   xmlns:svg="http://www.w3.org/2000/svg"
   xmlns="http://www.w3.org/2000/svg"
   xmlns:sodipodi="http://sodipodi.sourceforge.net/DTD/sodipodi-0.dtd"
   xmlns:inkscape="http://www.inkscape.org/namespaces/inkscape"
   version="1.0"
   width="160.82355mm"
   height="160.82355mm"
   viewBox="0 0 455.87779 455.87777"
   preserveAspectRatio="xMidYMid meet"
   id="svg28"
   sodipodi:docname="red.svg"
   inkscape:version="0.92.3 (2405546, 2018-03-11)">
  <metadata
     id="metadata34">
    <rdf:RDF>
      <cc:Work
         rdf:about="">
        <dc:format>image/svg+xml</dc:format>
        <dc:type
           rdf:resource="http://purl.org/dc/dcmitype/StillImage" />
        <dc:title></dc:title>
      </cc:Work>
    </rdf:RDF>
  </metadata>
  <defs
     id="defs32" />
  <sodipodi:namedview
     pagecolor="#ffffff"
     bordercolor="#666666"
     borderopacity="1"
     objecttolerance="10"
     gridtolerance="10"
     guidetolerance="10"
     inkscape:pageopacity="0"
     inkscape:pageshadow="2"
     inkscape:window-width="1570"
     inkscape:window-height="931"
     id="namedview30"
     showgrid="false"
     units="mm"
     fit-margin-top="0"
     fit-margin-left="0"
     fit-margin-right="0"
     fit-margin-bottom="0"
     inkscape:zoom="0.296875"
     inkscape:cx="8.9459171"
     inkscape:cy="183.892"
     inkscape:window-x="0"
     inkscape:window-y="0"
     inkscape:window-maximized="0"
     inkscape:current-layer="svg28" />
  <path
     style="fill:#ff4255;fill-opacity:1;stroke:none;stroke-width:0.10000001"
     d="m 63.566579,32.366833 4.999515,3.599123 c 2.799998,1.899997 10.899998,7.200097 18,11.600092 7.2,4.400003 15.799706,9.999908 19.199706,12.399908 l 6.10107,4.400385 3.09962,12.700204 c 14.4,61.299995 25.80009,139.799315 34.10009,235.299305 1.1,12.9 2.3001,25.50088 2.6001,27.90088 0.6,4.3 0.60019,4.29951 2.20019,1.99952 3.70001,-5.7 15.39962,-17.8004 27.09962,-28.4004 32.7,-29.6 62.60039,-50.09931 71.90039,-49.29931 3.3,0.3 3.79882,0.69931 4.7988,4.29931 5.00002,16.5 -4.599,62.50098 -26.499,126.50095 -3.80003,11.30003 -6.80055,20.59935 -6.6006,20.79938 0.9,0.9 36.19965,-35.49935 43.5996,-44.79935 33.20002,-42.1 55.1013,-90.8001 63.8013,-142.1001 2.4,-14 4.0986,-29.89971 4.0986,-38.69971 v -6.50097 l -10.1997,0.60058 c -25.89998,1.5 -45.50025,8.69942 -88.8003,32.39942 -18.09998,9.9 -42.99998,22.6001 -43.49998,22.1001 -0.4,-0.4 24.50098,-34.89932 41.00098,-56.79932 31.29997,-41.3 62.4993,-77.40059 101.7993,-117.600582 18.80002,-19.300005 19.1997,-19.499512 41.6997,-27.499515 l 13.5,-4.800292 H 227.56608 Z M 212.30242,67.720835 c 7.42653,-0.0109 15.31316,0.196 23.26316,0.646 18.80002,1.09999 26.70112,2.39961 28.6011,4.59961 5.1,6.2 -21.801,44.500285 -60.50098,85.800285 -9.8,10.6 -26.49883,25.99971 -27.29883,25.19971 -0.19999,-0.1 -1.40117,-7.39971 -2.70117,-16.19971 -7.5,-48.6 -9.69951,-90.100285 -4.99951,-94.800285 3.225,-3.225 21.35655,-5.2128 43.63623,-5.24561 z M 0.17253664,138.65736 c -0.068775,0.0156 -0.106935,0.0845 -0.106935,0.20947 0,0.6 7.20049496,29.0999 16.00049236,63.3999 l 15.900878,62.39942 5.898922,6.0996 c 3.200003,3.40001 27.60069,29.30059 54.200685,57.60059 26.600001,28.3 50.799311,54 53.799311,57 4.8,4.8 5.19991,5.09951 3.39991,1.99951 -7.7,-13.2 -146.7998009,-245.9 -147.7998059,-247.5 -0.59999996,-0.825 -1.08720746,-1.25537 -1.29345746,-1.20849 z M 455.86638,140.26575 c -0.20003,-0.39999 -32.8998,54.00088 -72.7998,120.90088 -39.9,66.8 -73.60043,123.3001 -74.9004,125.6001 l -2.3994,4.1001 4.9995,-5.00098 c 4.59997,-4.59999 108.40042,-115.4 112.4004,-120 1.59997,-1.89999 33.39967,-123.8001 32.6997,-125.6001 z M 0.00115414,308.34632 c -0.011325,0.0379 0.064425,0.15723 0.064425,0.21973 0,0.1 7.10087996,19.00078 15.90088486,41.80078 l 15.7998,41.49902 50.900393,16.10013 c 44.100003,13.99995 53.400293,16.80105 51.300293,15.10102 -0.2,-0.19995 -29.20039,-25.10077 -64.400393,-55.30075 C 4.4665566,311.85375 0.08042914,308.08109 0.00113164,308.34632 Z M 455.86638,309.86683 c -0.20003,-0.2 -30.6,25.0998 -67.5,56.2998 -36.99998,31.1 -66.99983,56.80002 -66.7998,56.99997 0.6,0.70005 100.89922,-28.90065 102.1992,-30.20065 1.2,-1.2 32.7006,-82.49912 32.1006,-83.09912 z"
     id="path6"
     inkscape:connector-curvature="0" />
</svg>
